<svg width="107" height="18" fill="none" xmlns="http://www.w3.org/2000/svg"><g clip-path="url(#a)"><path d="M104 1H89.9C88.2 1 87 2.5 87 4.2v9.5c0 1.8 1.2 3.3 2.9 3.3h14.3c1.5 0 2.9-1.5 2.9-3.2V4.2c-.2-1.7-1.4-3.2-3.1-3.2ZM94 12.8V5.2l6.7 3.8-6.7 3.8Z" fill="#83B3D3"/></g><path d="M54 0a4 4 0 0 0-4 4v2h-3v4h3v8h4v-8h3V6h-3V4h3V0h-3Z" fill="#83B3D3"/><g clip-path="url(#b)"><path d="M11.6 1.2c1.8-.5 3.2.3 3.8 1.2l2.1-.7c0 .9-.6 1.5-.9 1.8.7.1 1.4-.6 1.4-.6a3 3 0 0 1-1.7 2C16.1 11.7 13 16.1 5.7 16h-.5c-.4 0-4.4-.5-5.2-1.9 2.4.2 4.1-.4 5-1.2-1-.3-2.9-.4-3.2-2.9.4.1.6.2 1.3.1C1.8 9.3.4 8.5.5 6.3c.3.3 1.1.5 1.4.5-.8-.2-2.1-3.3-1-4.9a11 11 0 0 0 7.6 3.8c.2-2.4 1.2-3.9 3.1-4.5Z" fill="#83B3D3"/></g><defs><clipPath id="a"><path fill="#fff" transform="translate(87 1)" d="M0 0h20v16H0z"/></clipPath><clipPath id="b"><path fill="#fff" transform="translate(0 1)" d="M0 0h18v15H0z"/></clipPath></defs></svg>